<svg xmlns="http://www.w3.org/2000/svg" width="64" height="64" viewBox="0 0 64 64" role="img" aria-label="Quote app icon">
  <defs>
    <linearGradient id="face" x1="18" x2="46" y1="12" y2="46" gradientUnits="userSpaceOnUse">
      <stop stop-color="#E8F3F7"/>
      <stop offset="1" stop-color="#8DB7C5"/>
    </linearGradient>
    <linearGradient id="side" x1="10" x2="37" y1="22" y2="52" gradientUnits="userSpaceOnUse">
      <stop stop-color="#2E6C80"/>
      <stop offset="1" stop-color="#164657"/>
    </linearGradient>
  </defs>
  <rect width="64" height="64" rx="14" fill="#101820"/>
  <path fill="url(#face)" d="M32 10.7 52.8 22 32 33.4 11.2 22 32 10.7Z"/>
  <path fill="url(#side)" d="M11.2 22 32 33.4v18.7L11.2 40.7V22Z"/>
  <path fill="#5FA9BE" d="M52.8 22 32 33.4v18.7l20.8-11.4V22Z"/>
  <path stroke="#E8F3F7" stroke-linejoin="round" stroke-width="2" d="M32 10.7 52.8 22 32 33.4 11.2 22 32 10.7Zm-20.8 11.3L32 33.4v18.7L11.2 40.7V22Zm41.6 0L32 33.4v18.7l20.8-11.4V22Z"/>
  <path stroke="#F5C84C" stroke-linecap="round" stroke-linejoin="round" stroke-width="3" d="M22 40.3h8.4m-4.9-4.9 4.9 4.9-4.9 4.9"/>
  <circle cx="42.8" cy="38.5" r="5" stroke="#101820" stroke-width="2.3"/>
  <path stroke="#101820" stroke-linecap="round" stroke-width="2.3" d="m46.4 42.1 4.1 4.1"/>
</svg>
