<svg xmlns="http://www.w3.org/2000/svg" width="188" height="40" viewBox="0 0 188 40" role="img" aria-labelledby="title desc">
  <title id="title">Quote</title>
  <desc id="desc">Industrial quote app logo with a machined CAD block and quotation sheet mark.</desc>
  <defs>
    <linearGradient id="mark-face" x1="10" x2="34" y1="7" y2="31" gradientUnits="userSpaceOnUse">
      <stop stop-color="#E8F3F7"/>
      <stop offset="1" stop-color="#8DB7C5"/>
    </linearGradient>
    <linearGradient id="mark-side" x1="10" x2="31" y1="16" y2="34" gradientUnits="userSpaceOnUse">
      <stop stop-color="#2E6C80"/>
      <stop offset="1" stop-color="#164657"/>
    </linearGradient>
  </defs>

  <g fill="none" fill-rule="evenodd">
    <rect width="40" height="40" rx="8" fill="#101820"/>

    <path fill="url(#mark-face)" d="M20 6.7 33.4 14 20 21.4 6.6 14 20 6.7Z"/>
    <path fill="url(#mark-side)" d="M6.6 14 20 21.4v12L6.6 26V14Z"/>
    <path fill="#5FA9BE" d="M33.4 14 20 21.4v12L33.4 26V14Z"/>
    <path stroke="#E8F3F7" stroke-linejoin="round" stroke-width="1.25" d="M20 6.7 33.4 14 20 21.4 6.6 14 20 6.7Zm-13.4 7.3L20 21.4v12L6.6 26V14Zm26.8 0L20 21.4v12L33.4 26V14Z"/>

    <path stroke="#F5C84C" stroke-linecap="round" stroke-linejoin="round" stroke-width="2" d="M13.2 25.5h5.2m-3.1-3.1 3.1 3.1-3.1 3.1"/>
    <circle cx="27.1" cy="24.2" r="3.2" stroke="#101820" stroke-width="1.4"/>
    <path stroke="#101820" stroke-linecap="round" stroke-width="1.4" d="m29.3 26.5 2.5 2.5"/>

    <path fill="#15222B" d="M52.5 11.2c4.8 0 8.5 3.6 8.5 8.5 0 2.5-.9 4.6-2.5 6.2l2.6 2.8-2.7 2.4-2.7-2.9c-1 .4-2 .6-3.2.6-4.8 0-8.5-3.6-8.5-8.6s3.7-9 8.5-9Zm0 3.5c-2.6 0-4.4 2.1-4.4 5.2 0 3 1.8 5.1 4.4 5.1h.5l-2.1-2.3 2.6-2.4 2.2 2.4c.7-.8 1.1-1.8 1.1-3 0-2.9-1.8-5-4.3-5Zm23.4-3.2v10.2c0 4.5-2.9 7.2-7.2 7.2s-7.2-2.7-7.2-7.2V11.5h4.1v10.1c0 2.3 1.2 3.6 3.1 3.6s3.1-1.3 3.1-3.6V11.5h4.1Zm10.2-.3c4.8 0 8.5 3.7 8.5 8.8s-3.7 8.8-8.5 8.8-8.5-3.7-8.5-8.8 3.7-8.8 8.5-8.8Zm0 3.6c-2.5 0-4.3 2.1-4.3 5.2s1.8 5.2 4.3 5.2 4.3-2.1 4.3-5.2-1.8-5.2-4.3-5.2Zm22.7-3.3V15h-5.3v13.5h-4.1V15h-5.3v-3.5h14.7Zm13.2 0V15h-8.2v3.4h7.4v3.3h-7.4V25h8.4v3.5h-12.5v-17h12.3Z"/>
    <path fill="#5FA9BE" d="M130.2 13.1h23.5v2.5h-23.5z"/>
    <path fill="#F5C84C" d="M130.2 20.3h16.4v2.5h-16.4z"/>
    <path fill="#5FA9BE" d="M130.2 27.5h31.8V30h-31.8z"/>
    <path fill="#15222B" d="M168.6 13.1h13.8c.8 0 1.4.6 1.4 1.4v14.1c0 .8-.6 1.4-1.4 1.4h-13.8c-.8 0-1.4-.6-1.4-1.4V14.5c0-.8.6-1.4 1.4-1.4Zm2.3 3.4v10.1h9.2V16.5h-9.2Z"/>
    <path fill="#F5C84C" d="M173 19.1h5v1.9h-5zm0 3.2h5v1.9h-5z"/>
  </g>
</svg>
